STARTFONT 2.1
COMMENT +
COMMENT  Copyright 1984-1989, 1994 Adobe Systems Incorporated.
COMMENT  Copyright 1988, 1994 Digital Equipment Corporation.
COMMENT  Copyright 1996 BIZNET Poland, Inc.
COMMENT
COMMENT  Permission to use, copy, modify, distribute and sell this software
COMMENT  and its documentation for any purpose and without fee is hereby
COMMENT  granted, provided that the above copyright notices appear in all
COMMENT  copies and that both those copyright notices and this permission
COMMENT  notice appear in supporting documentation, and that the names of
COMMENT  Adobe Systems and Digital Equipment Corporation not be used in
COMMENT  advertising or publicity pertaining to distribution of the software
COMMENT  without specific, written prior permission.  Adobe Systems and
COMMENT  Digital Equipment Corporation make no representations about the
COMMENT  suitability of this software for any purpose.  It is provided "as
COMMENT  is" without express or implied warranty.
COMMENT -
FONT -BIZNET-Aplos-Medium-O-Normal--14-140-75-75-P-78-ISO8859-2
SIZE 14 75 75
FONTBOUNDINGBOX 14 14 -3 -3
STARTPROPERTIES 25
FOUNDRY "BIZNET"
FAMILY_NAME "BIZNET Aplos"
WEIGHT_NAME "Medium"
SLANT "O"
SETWIDTH_NAME "Normal"
ADD_STYLE_NAME ""
PIXEL_SIZE 14
POINT_SIZE 140
RESOLUTION_X 75
RESOLUTION_Y 75
SPACING "P"
AVERAGE_WIDTH 78
CHARSET_REGISTRY "ISO8859"
CHARSET_ENCODING "2"
CAP_HEIGHT 11
X_HEIGHT 8
FONT_ASCENT 13
FONT_DESCENT 3
FACE_NAME "BIZNET Aplos Oblique"
DEFAULT_CHAR 32
RELATIVE_SETWIDTH 50
RELATIVE_WEIGHT 50
CHARSET_COLLECTIONS "ASCII ISO8859-2"
COPYRIGHT "Copyright (c) 1984, 1987 Adobe Systems Incorporated. All Rights Reserved. Copyright (c) 1988, 1991 Digital Equipment Corporation. All Rights Reserved. Copyright (c) 1996 BIZNET Poland, Inc. All Rights Reserved."
NOTICE "The name "BIZNET" is a registered trademark of BIZNET Poland, Inc."
ENDPROPERTIES
CHARS 190
STARTCHAR space
ENCODING 32
SWIDTH 278 0
DWIDTH 4 0
BBX 1 1 0 0
BITMAP
00
ENDCHAR
STARTCHAR exclam
ENCODING 33
SWIDTH 278 0
DWIDTH 4 0
BBX 4 11 1 0
BITMAP
10
10
20
20
20
40
40
40
00
80
80
ENDCHAR
STARTCHAR quotedbl
ENCODING 34
SWIDTH 355 0
DWIDTH 5 0
BBX 4 3 2 8
BITMAP
50
50
A0
ENDCHAR
STARTCHAR numbersign
ENCODING 35
SWIDTH 556 0
DWIDTH 9 0
BBX 9 10 0 0
BITMAP
0900
0900
1200
7F80
1200
2400
FE00
2400
4800
4800
ENDCHAR
STARTCHAR dollar
ENCODING 36
SWIDTH 556 0
DWIDTH 8 0
BBX 8 13 0 -2
BITMAP
04
1E
25
25
28
18
0C
12
92
94
78
20
20
ENDCHAR
STARTCHAR percent
ENCODING 37
SWIDTH 889 0
DWIDTH 12 0
BBX 9 10 2 0
BITMAP
7080
8900
8A00
7400
0400
0800
1700
2880
4880
8700
ENDCHAR
STARTCHAR ampersand
ENCODING 38
SWIDTH 667 0
DWIDTH 10 0
BBX 8 10 1 0
BITMAP
1C
24
24
18
31
49
86
84
8A
71
ENDCHAR
STARTCHAR quoteright
ENCODING 39
SWIDTH 222 0
DWIDTH 3 0
BBX 2 3 3 8
BITMAP
C0
40
80
ENDCHAR
STARTCHAR parenleft
ENCODING 40
SWIDTH 333 0
DWIDTH 5 0
BBX 5 14 1 -3
BITMAP
08
10
20
20
40
40
80
80
80
80
80
80
40
40
ENDCHAR
STARTCHAR parenright
ENCODING 41
SWIDTH 333 0
DWIDTH 5 0
BBX 5 14 0 -3
BITMAP
10
10
08
08
08
08
08
08
10
10
20
20
40
80
ENDCHAR
STARTCHAR asterisk
ENCODING 42
SWIDTH 389 0
DWIDTH 8 0
BBX 6 5 3 6
BITMAP
10
54
78
A8
20
ENDCHAR
STARTCHAR plus
ENCODING 43
SWIDTH 584 0
DWIDTH 9 0
BBX 7 7 1 1
BITMAP
08
08
10
FE
10
20
20
ENDCHAR
STARTCHAR comma
ENCODING 44
SWIDTH 278 0
DWIDTH 3 0
BBX 2 4 0 -2
BITMAP
40
40
40
80
ENDCHAR
STARTCHAR minus
ENCODING 45
SWIDTH 584 0
DWIDTH 9 0
BBX 7 1 1 4
BITMAP
FE
ENDCHAR
STARTCHAR period
ENCODING 46
SWIDTH 278 0
DWIDTH 3 0
BBX 1 2 1 0
BITMAP
80
80
ENDCHAR
STARTCHAR slash
ENCODING 47
SWIDTH 278 0
DWIDTH 4 0
BBX 5 11 0 0
BITMAP
08
08
10
10
20
20
20
40
40
80
80
ENDCHAR
STARTCHAR zero
ENCODING 48
SWIDTH 556 0
DWIDTH 8 0
BBX 9 10 0 0
BITMAP
0F00
1080
2100
2100
4200
4200
4200
8400
8400
7800
ENDCHAR
STARTCHAR one
ENCODING 49
SWIDTH 556 0
DWIDTH 8 0
BBX 4 10 3 0
BITMAP
10
F0
20
20
40
40
40
80
80
80
ENDCHAR
STARTCHAR two
ENCODING 50
SWIDTH 556 0
DWIDTH 8 0
BBX 8 10 0 0
BITMAP
1E
21
21
02
0C
10
60
80
80
FC
ENDCHAR
STARTCHAR three
ENCODING 51
SWIDTH 556 0
DWIDTH 8 0
BBX 8 10 0 0
BITMAP
1E
21
01
02
1C
02
02
84
84
78
ENDCHAR
STARTCHAR four
ENCODING 52
SWIDTH 556 0
DWIDTH 8 0
BBX 7 10 1 0
BITMAP
06
0A
14
24
48
88
FC
10
20
20
ENDCHAR
STARTCHAR five
ENCODING 53
SWIDTH 556 0
DWIDTH 8 0
BBX 8 10 0 0
BITMAP
1F
10
20
3C
02
02
02
84
84
78
ENDCHAR
STARTCHAR six
ENCODING 54
SWIDTH 556 0
DWIDTH 8 0
BBX 8 10 0 0
BITMAP
0F
11
20
20
5C
62
42
82
84
78
ENDCHAR
STARTCHAR seven
ENCODING 55
SWIDTH 556 0
DWIDTH 8 0
BBX 7 10 2 0
BITMAP
7E
04
08
10
20
20
40
40
80
80
ENDCHAR
STARTCHAR eight
ENCODING 56
SWIDTH 556 0
DWIDTH 8 0
BBX 8 10 0 0
BITMAP
1E
21
21
12
3C
42
82
82
84
78
ENDCHAR
STARTCHAR nine
ENCODING 57
SWIDTH 556 0
DWIDTH 8 0
BBX 8 10 0 0
BITMAP
0E
11
21
21
22
1E
02
84
84
78
ENDCHAR
STARTCHAR colon
ENCODING 58
SWIDTH 278 0
DWIDTH 4 0
BBX 3 8 1 0
BITMAP
20
20
00
00
00
00
80
80
ENDCHAR
STARTCHAR semicolon
ENCODING 59
SWIDTH 278 0
DWIDTH 4 0
BBX 4 10 0 -2
BITMAP
10
10
00
00
00
00
40
40
40
80
ENDCHAR
STARTCHAR less
ENCODING 60
SWIDTH 584 0
DWIDTH 9 0
BBX 7 5 1 2
BITMAP
06
38
C0
30
0C
ENDCHAR
STARTCHAR equal
ENCODING 61
SWIDTH 584 0
DWIDTH 9 0
BBX 7 3 1 3
BITMAP
7E
00
FC
ENDCHAR
STARTCHAR greater
ENCODING 62
SWIDTH 584 0
DWIDTH 9 0
BBX 7 5 1 2
BITMAP
60
18
06
38
C0
ENDCHAR
STARTCHAR question
ENCODING 63
SWIDTH 556 0
DWIDTH 8 0
BBX 6 11 2 0
BITMAP
38
44
84
84
08
10
20
40
00
80
80
ENDCHAR
STARTCHAR at
ENCODING 64
SWIDTH 1015 0
DWIDTH 13 0
BBX 12 12 1 -1
BITMAP
07C0
1820
2010
4750
4890
9120
9120
9340
9D80
8000
4000
3F00
ENDCHAR
STARTCHAR A
ENCODING 65
SWIDTH 667 0
DWIDTH 11 0
BBX 9 11 1 0
BITMAP
0200
0500
0900
0900
1100
1100
2100
7F80
4080
8080
8080
ENDCHAR
STARTCHAR B
ENCODING 66
SWIDTH 667 0
DWIDTH 10 0
BBX 9 11 1 0
BITMAP
1F00
1080
2080
2080
2100
7E00
4100
4100
8100
8200
FC00
ENDCHAR
STARTCHAR C
ENCODING 67
SWIDTH 722 0
DWIDTH 10 0
BBX 9 11 1 0
BITMAP
0F00
1080
2080
4000
4000
8000
8000
8100
8200
C600
3800
ENDCHAR
STARTCHAR D
ENCODING 68
SWIDTH 722 0
DWIDTH 10 0
BBX 9 11 1 0
BITMAP
1E00
1100
2100
2080
2080
4080
4100
4100
8200
8C00
F000
ENDCHAR
STARTCHAR E
ENCODING 69
SWIDTH 667 0
DWIDTH 9 0
BBX 10 11 1 0
BITMAP
1FC0
1000
1000
2000
2000
7E00
4000
4000
8000
8000
FE00
ENDCHAR
STARTCHAR F
ENCODING 70
SWIDTH 611 0
DWIDTH 9 0
BBX 10 11 1 0
BITMAP
1FC0
1000
2000
2000
2000
7E00
4000
4000
8000
8000
8000
ENDCHAR
STARTCHAR G
ENCODING 71
SWIDTH 778 0
DWIDTH 11 0
BBX 10 11 1 0
BITMAP
0780
1840
2040
4000
4000
8780
8080
8100
8100
4700
3900
ENDCHAR
STARTCHAR H
ENCODING 72
SWIDTH 722 0
DWIDTH 11 0
BBX 11 11 1 0
BITMAP
1020
1020
2040
2040
2040
7F80
4080
4080
8100
8100
8100
ENDCHAR
STARTCHAR I
ENCODING 73
SWIDTH 278 0
DWIDTH 5 0
BBX 4 11 1 0
BITMAP
10
10
20
20
20
40
40
40
80
80
80
ENDCHAR
STARTCHAR J
ENCODING 74
SWIDTH 500 0
DWIDTH 9 0
BBX 9 11 1 0
BITMAP
0080
0080
0100
0100
0100
0200
0200
8200
8400
8400
7800
ENDCHAR
STARTCHAR K
ENCODING 75
SWIDTH 667 0
DWIDTH 10 0
BBX 9 11 1 0
BITMAP
1080
1100
2200
2400
2800
7800
4800
4400
8200
8200
8100
ENDCHAR
STARTCHAR L
ENCODING 76
SWIDTH 556 0
DWIDTH 8 0
BBX 6 11 1 0
BITMAP
10
10
20
20
20
40
40
40
80
80
FC
ENDCHAR
STARTCHAR M
ENCODING 77
SWIDTH 833 0
DWIDTH 14 0
BBX 14 11 1 0
BITMAP
180C
1814
2828
2828
2848
4890
4890
4510
8520
8620
8420
ENDCHAR
STARTCHAR N
ENCODING 78
SWIDTH 722 0
DWIDTH 11 0
BBX 11 11 1 0
BITMAP
1820
1820
2840
2440
2440
4480
4480
4480
8500
8300
8300
ENDCHAR
STARTCHAR O
ENCODING 79
SWIDTH 778 0
DWIDTH 11 0
BBX 10 11 1 0
BITMAP
0700
1880
20C0
4040
4040
8080
8080
8180
8200
C600
3800
ENDCHAR
STARTCHAR P
ENCODING 80
SWIDTH 667 0
DWIDTH 9 0
BBX 9 11 1 0
BITMAP
1F00
1080
2080
2080
2100
7E00
4000
4000
8000
8000
8000
ENDCHAR
STARTCHAR Q
ENCODING 81
SWIDTH 778 0
DWIDTH 11 0
BBX 10 11 1 0
BITMAP
0700
1880
20C0
4040
4040
8080
8880
8580
8200
C700
3880
ENDCHAR
STARTCHAR R
ENCODING 82
SWIDTH 722 0
DWIDTH 10 0
BBX 9 11 1 0
BITMAP
1F00
1080
2080
2080
2100
7E00
4100
4100
8100
8200
8200
ENDCHAR
STARTCHAR S
ENCODING 83
SWIDTH 667 0
DWIDTH 9 0
BBX 9 11 0 0
BITMAP
0700
1880
2080
2000
1800
0600
0100
0100
8200
4600
3800
ENDCHAR
STARTCHAR T
ENCODING 84
SWIDTH 611 0
DWIDTH 8 0
BBX 9 11 2 0
BITMAP
FF80
0800
1000
1000
1000
2000
2000
2000
4000
4000
4000
ENDCHAR
STARTCHAR U
ENCODING 85
SWIDTH 722 0
DWIDTH 11 0
BBX 11 11 1 0
BITMAP
1020
1020
2040
2040
2040
4080
4080
4080
8100
C300
7E00
ENDCHAR
STARTCHAR V
ENCODING 86
SWIDTH 667 0
DWIDTH 11 0
BBX 8 11 4 0
BITMAP
81
81
82
82
84
84
88
90
90
60
40
ENDCHAR
STARTCHAR W
ENCODING 87
SWIDTH 944 0
DWIDTH 14 0
BBX 12 11 3 0
BITMAP
8410
8410
8C20
8C20
9440
9440
A480
A480
C300
C300
8200
ENDCHAR
STARTCHAR X
ENCODING 88
SWIDTH 667 0
DWIDTH 10 0
BBX 11 11 0 0
BITMAP
1020
1040
0880
0900
0600
0400
0A00
1200
2100
4100
8080
ENDCHAR
STARTCHAR Y
ENCODING 89
SWIDTH 667 0
DWIDTH 9 0
BBX 9 11 2 0
BITMAP
8080
8100
8200
4200
4400
4800
3000
2000
2000
4000
4000
ENDCHAR
STARTCHAR Z
ENCODING 90
SWIDTH 611 0
DWIDTH 9 0
BBX 10 11 0 0
BITMAP
1FC0
0040
0080
0100
0200
0400
0800
1000
2000
4000
FF00
ENDCHAR
STARTCHAR bracketleft
ENCODING 91
SWIDTH 278 0
DWIDTH 5 0
BBX 7 14 0 -3
BITMAP
0E
08
10
10
10
20
20
20
40
40
40
80
80
E0
ENDCHAR
STARTCHAR backslash
ENCODING 92
SWIDTH 278 0
DWIDTH 6 0
BBX 3 11 2 0
BITMAP
80
80
80
40
40
40
40
20
20
20
20
ENDCHAR
STARTCHAR bracketright
ENCODING 93
SWIDTH 278 0
DWIDTH 5 0
BBX 7 14 -1 -3
BITMAP
0E
02
04
04
04
08
08
08
10
10
10
20
20
E0
ENDCHAR
STARTCHAR asciicircum
ENCODING 94
SWIDTH 469 0
DWIDTH 7 0
BBX 6 5 2 6
BITMAP
08
14
24
44
84
ENDCHAR
STARTCHAR underscore
ENCODING 95
SWIDTH 556 0
DWIDTH 8 0
BBX 8 1 -1 -3
BITMAP
FF
ENDCHAR
STARTCHAR quoteleft
ENCODING 96
SWIDTH 222 0
DWIDTH 3 0
BBX 2 3 2 8
BITMAP
40
80
C0
ENDCHAR
STARTCHAR a
ENCODING 97
SWIDTH 556 0
DWIDTH 8 0
BBX 7 8 0 0
BITMAP
1C
22
02
3C
44
88
98
EC
ENDCHAR
STARTCHAR b
ENCODING 98
SWIDTH 556 0
DWIDTH 8 0
BBX 7 11 0 0
BITMAP
10
10
20
2C
32
42
42
42
84
C4
B8
ENDCHAR
STARTCHAR c
ENCODING 99
SWIDTH 500 0
DWIDTH 7 0
BBX 7 8 0 0
BITMAP
1C
22
40
40
80
84
88
70
ENDCHAR
STARTCHAR d
ENCODING 100
SWIDTH 556 0
DWIDTH 8 0
BBX 9 11 0 0
BITMAP
0080
0080
0100
1D00
2500
4200
4200
8200
8400
8C00
7400
ENDCHAR
STARTCHAR e
ENCODING 101
SWIDTH 556 0
DWIDTH 8 0
BBX 7 8 0 0
BITMAP
1C
22
42
7E
80
80
8C
70
ENDCHAR
STARTCHAR f
ENCODING 102
SWIDTH 278 0
DWIDTH 4 0
BBX 7 11 0 0
BITMAP
0E
10
20
F8
20
40
40
40
80
80
80
ENDCHAR
STARTCHAR g
ENCODING 103
SWIDTH 556 0
DWIDTH 8 0
BBX 9 11 -1 -3
BITMAP
0E80
1180
2100
2100
4100
4200
4600
3A00
0400
8400
7800
ENDCHAR
STARTCHAR h
ENCODING 104
SWIDTH 556 0
DWIDTH 8 0
BBX 7 11 0 0
BITMAP
10
10
20
2C
32
42
44
44
84
88
88
ENDCHAR
STARTCHAR i
ENCODING 105
SWIDTH 222 0
DWIDTH 4 0
BBX 4 11 0 0
BITMAP
10
10
00
20
20
40
40
40
80
80
80
ENDCHAR
STARTCHAR j
ENCODING 106
SWIDTH 222 0
DWIDTH 3 0
BBX 7 14 -3 -3
BITMAP
02
02
00
04
04
08
08
08
10
10
10
10
20
C0
ENDCHAR
STARTCHAR k
ENCODING 107
SWIDTH 500 0
DWIDTH 7 0
BBX 7 11 0 0
BITMAP
10
10
20
22
24
58
60
50
90
88
84
ENDCHAR
STARTCHAR l
ENCODING 108
SWIDTH 222 0
DWIDTH 3 0
BBX 4 11 0 0
BITMAP
10
10
20
20
20
40
40
40
80
80
80
ENDCHAR
STARTCHAR m
ENCODING 109
SWIDTH 833 0
DWIDTH 11 0
BBX 11 8 0 0
BITMAP
2CC0
3320
4420
4440
4440
8880
8880
8880
ENDCHAR
STARTCHAR n
ENCODING 110
SWIDTH 556 0
DWIDTH 8 0
BBX 7 8 0 0
BITMAP
2C
32
42
44
44
84
88
88
ENDCHAR
STARTCHAR o
ENCODING 111
SWIDTH 556 0
DWIDTH 8 0
BBX 7 8 0 0
BITMAP
1C
22
42
42
84
84
88
70
ENDCHAR
STARTCHAR p
ENCODING 112
SWIDTH 556 0
DWIDTH 8 0
BBX 8 11 -1 -3
BITMAP
16
19
21
21
21
42
62
5C
40
80
80
ENDCHAR
STARTCHAR q
ENCODING 113
SWIDTH 556 0
DWIDTH 8 0
BBX 8 11 0 -3
BITMAP
1D
23
42
42
82
84
8C
74
04
08
08
ENDCHAR
STARTCHAR r
ENCODING 114
SWIDTH 333 0
DWIDTH 5 0
BBX 6 8 0 0
BITMAP
2C
30
40
40
40
80
80
80
ENDCHAR
STARTCHAR s
ENCODING 115
SWIDTH 500 0
DWIDTH 7 0
BBX 7 8 0 0
BITMAP
1C
22
40
38
04
84
88
70
ENDCHAR
STARTCHAR t
ENCODING 116
SWIDTH 278 0
DWIDTH 4 0
BBX 5 10 0 0
BITMAP
10
10
78
20
40
40
40
80
80
60
ENDCHAR
STARTCHAR u
ENCODING 117
SWIDTH 556 0
DWIDTH 8 0
BBX 7 8 0 0
BITMAP
22
22
42
44
44
84
98
68
ENDCHAR
STARTCHAR v
ENCODING 118
SWIDTH 500 0
DWIDTH 7 0
BBX 6 8 1 0
BITMAP
84
88
88
90
90
A0
A0
C0
ENDCHAR
STARTCHAR w
ENCODING 119
SWIDTH 722 0
DWIDTH 10 0
BBX 9 8 1 0
BITMAP
8880
8880
9900
9900
AA00
AA00
CC00
8800
ENDCHAR
STARTCHAR x
ENCODING 120
SWIDTH 500 0
DWIDTH 7 0
BBX 8 8 -1 0
BITMAP
21
12
14
08
18
24
44
82
ENDCHAR
STARTCHAR y
ENCODING 121
SWIDTH 500 0
DWIDTH 7 0
BBX 7 11 0 -3
BITMAP
42
44
44
48
48
50
70
20
40
40
80
ENDCHAR
STARTCHAR z
ENCODING 122
SWIDTH 500 0
DWIDTH 7 0
BBX 8 8 -1 0
BITMAP
3F
01
06
08
30
40
80
FC
ENDCHAR
STARTCHAR braceleft
ENCODING 123
SWIDTH 334 0
DWIDTH 5 0
BBX 6 14 1 -3
BITMAP
0C
10
20
20
20
40
80
40
40
40
80
80
80
60
ENDCHAR
STARTCHAR bar
ENCODING 124
SWIDTH 260 0
DWIDTH 3 0
BBX 5 14 0 -3
BITMAP
08
08
10
10
10
20
20
20
40
40
40
40
80
80
ENDCHAR
STARTCHAR braceright
ENCODING 125
SWIDTH 334 0
DWIDTH 5 0
BBX 6 14 -1 -3
BITMAP
18
04
04
08
08
08
04
08
10
10
10
20
20
C0
ENDCHAR
STARTCHAR asciitilde
ENCODING 126
SWIDTH 584 0
DWIDTH 8 0
BBX 6 3 2 3
BITMAP
64
B4
98
ENDCHAR
STARTCHAR Aogonek
ENCODING 161
SWIDTH 667 0
DWIDTH 11 0
BBX 9 14 1 -3
BITMAP
0200
0500
0900
0900
1100
1100
2100
7F80
4080
8080
8080
0300
0400
0700
ENDCHAR
STARTCHAR breve
ENCODING 162
SWIDTH 472 0
DWIDTH 7 0
BBX 5 2 1 9
BITMAP
88
70
ENDCHAR
STARTCHAR Lslash
ENCODING 163
SWIDTH 556 0
DWIDTH 9 0
BBX 7 11 1 0
BITMAP
08
08
10
14
18
60
A0
20
40
40
7E
ENDCHAR
STARTCHAR currency
ENCODING 164
SWIDTH 556 0
DWIDTH 8 0
BBX 7 6 1 2
BITMAP
42
3C
48
48
78
84
ENDCHAR
STARTCHAR Lcaron
ENCODING 165
SWIDTH 556 0
DWIDTH 8 0
BBX 6 11 1 0
BITMAP
14
14
28
20
20
40
40
40
80
80
FC
ENDCHAR
STARTCHAR Sacute
ENCODING 166
SWIDTH 667 0
DWIDTH 9 0
BBX 9 14 0 0
BITMAP
0100
0200
0000
0700
1880
2080
2000
1800
0600
0100
0100
8200
4600
3800
ENDCHAR
STARTCHAR section
ENCODING 167
SWIDTH 556 0
DWIDTH 8 0
BBX 8 14 0 -3
BITMAP
0E
11
11
08
1C
26
42
42
64
38
10
88
88
70
ENDCHAR
STARTCHAR dieresis
ENCODING 168
SWIDTH 333 0
DWIDTH 5 0
BBX 5 1 2 9
BITMAP
D8
ENDCHAR
STARTCHAR Scaron
ENCODING 169
SWIDTH 667 0
DWIDTH 9 0
BBX 9 14 0 0
BITMAP
0500
0200
0000
0700
1880
2080
2000
1800
0600
0100
0100
8200
4600
3800
ENDCHAR
STARTCHAR Scedilla
ENCODING 170
SWIDTH 667 0
DWIDTH 9 0
BBX 9 14 0 -3
BITMAP
0700
1880
2080
2000
1800
0600
0100
0100
8200
4600
3800
1000
9000
6000
ENDCHAR
STARTCHAR Tcaron
ENCODING 171
SWIDTH 611 0
DWIDTH 8 0
BBX 9 14 2 0
BITMAP
1400
0800
0000
FF80
0800
1000
1000
1000
2000
2000
2000
4000
4000
4000
ENDCHAR
STARTCHAR Zacute
ENCODING 172
SWIDTH 611 0
DWIDTH 9 0
BBX 10 14 0 0
BITMAP
0100
0200
0000
1FC0
0040
0080
0100
0200
0400
0800
1000
2000
4000
FF00
ENDCHAR
STARTCHAR hyphen
ENCODING 173
SWIDTH 333 0
DWIDTH 6 0
BBX 5 1 1 4
BITMAP
F8
ENDCHAR
STARTCHAR Zcaron
ENCODING 174
SWIDTH 611 0
DWIDTH 9 0
BBX 10 14 0 0
BITMAP
0500
0200
0000
1FC0
0040
0080
0100
0200
0400
0800
1000
2000
4000
FF00
ENDCHAR
STARTCHAR Zdotaccent
ENCODING 175
SWIDTH 611 0
DWIDTH 9 0
BBX 10 13 0 0
BITMAP
0300
0000
1FC0
0040
0080
0100
0200
0400
0800
1000
2000
4000
FF00
ENDCHAR
STARTCHAR degree
ENCODING 176
SWIDTH 400 0
DWIDTH 6 0
BBX 4 4 2 6
BITMAP
60
90
90
60
ENDCHAR
STARTCHAR aogonek
ENCODING 177
SWIDTH 556 0
DWIDTH 8 0
BBX 7 11 0 -3
BITMAP
1C
22
02
3C
44
88
98
EC
0C
10
1C
ENDCHAR
STARTCHAR ogonek
ENCODING 178
SWIDTH 472 0
DWIDTH 7 0
BBX 3 3 2 -3
BITMAP
60
80
E0
ENDCHAR
STARTCHAR lslash
ENCODING 179
SWIDTH 222 0
DWIDTH 3 0
BBX 4 11 0 0
BITMAP
10
10
20
20
30
C0
40
40
80
80
80
ENDCHAR
STARTCHAR acute
ENCODING 180
SWIDTH 333 0
DWIDTH 4 0
BBX 2 2 3 9
BITMAP
40
80
ENDCHAR
STARTCHAR lcaron
ENCODING 181
SWIDTH 222 0
DWIDTH 3 0
BBX 6 11 0 0
BITMAP
14
14
28
20
20
40
40
40
80
80
80
ENDCHAR
STARTCHAR sacute
ENCODING 182
SWIDTH 500 0
DWIDTH 7 0
BBX 7 11 0 0
BITMAP
02
04
00
1C
22
40
38
04
84
88
70
ENDCHAR
STARTCHAR caron
ENCODING 183
SWIDTH 337 0
DWIDTH 5 0
BBX 3 2 1 9
BITMAP
A0
40
ENDCHAR
STARTCHAR cedilla
ENCODING 184
SWIDTH 539 0
DWIDTH 8 0
BBX 4 3 2 -3
BITMAP
10
90
60
ENDCHAR
STARTCHAR scaron
ENCODING 185
SWIDTH 500 0
DWIDTH 7 0
BBX 7 11 0 0
BITMAP
14
08
00
1C
22
40
38
04
84
88
70
ENDCHAR
STARTCHAR scedilla
ENCODING 186
SWIDTH 500 0
DWIDTH 7 0
BBX 8 11 -1 -3
BITMAP
0E
11
20
1C
02
42
44
38
10
90
60
ENDCHAR
STARTCHAR tcaron
ENCODING 187
SWIDTH 208 0
DWIDTH 3 0
BBX 7 12 0 0
BITMAP
02
02
14
10
78
20
40
40
40
80
80
60
ENDCHAR
STARTCHAR zacute
ENCODING 188
SWIDTH 500 0
DWIDTH 7 0
BBX 8 11 -1 0
BITMAP
02
04
00
3F
01
06
08
30
40
80
FC
ENDCHAR
STARTCHAR hungarumlaut
ENCODING 189
SWIDTH 404 0
DWIDTH 6 0
BBX 4 2 1 9
BITMAP
50
A0
ENDCHAR
STARTCHAR zcaron
ENCODING 190
SWIDTH 500 0
DWIDTH 7 0
BBX 8 11 -1 0
BITMAP
0A
04
00
3F
01
06
08
30
40
80
FC
ENDCHAR
STARTCHAR zdotaccent
ENCODING 191
SWIDTH 500 0
DWIDTH 7 0
BBX 8 10 -1 0
BITMAP
0C
00
3F
01
06
08
30
40
80
FC
ENDCHAR
STARTCHAR Racute
ENCODING 192
SWIDTH 722 0
DWIDTH 10 0
BBX 9 14 1 0
BITMAP
0200
0400
0000
1F00
1080
2080
2080
2100
7E00
4100
4100
8100
8200
8200
ENDCHAR
STARTCHAR Aacute
ENCODING 193
SWIDTH 667 0
DWIDTH 11 0
BBX 9 14 1 0
BITMAP
0100
0200
0000
0200
0500
0900
0900
1100
1100
2100
7F80
4080
8080
8080
ENDCHAR
STARTCHAR Acircumflex
ENCODING 194
SWIDTH 667 0
DWIDTH 11 0
BBX 9 14 1 0
BITMAP
0200
0500
0000
0200
0500
0900
0900
1100
1100
2100
7F80
4080
8080
8080
ENDCHAR
STARTCHAR Abreve
ENCODING 195
SWIDTH 667 0
DWIDTH 11 0
BBX 9 14 1 0
BITMAP
0880
0700
0000
0200
0500
0900
0900
1100
1100
2100
7F80
4080
8080
8080
ENDCHAR
STARTCHAR Adieresis
ENCODING 196
SWIDTH 667 0
DWIDTH 11 0
BBX 9 13 1 0
BITMAP
0D80
0000
0200
0500
0900
0900
1100
1100
2100
7F80
4080
8080
8080
ENDCHAR
STARTCHAR Lacute
ENCODING 197
SWIDTH 556 0
DWIDTH 8 0
BBX 6 14 1 0
BITMAP
08
10
00
10
10
20
20
20
40
40
40
80
80
FC
ENDCHAR
STARTCHAR Cacute
ENCODING 198
SWIDTH 722 0
DWIDTH 10 0
BBX 9 14 1 0
BITMAP
0100
0200
0000
0F00
1080
2080
4000
4000
8000
8000
8100
8200
C600
3800
ENDCHAR
STARTCHAR Ccedilla
ENCODING 199
SWIDTH 722 0
DWIDTH 10 0
BBX 9 14 1 -3
BITMAP
0F00
1080
2080
4000
4000
8000
8000
8100
8200
C600
3800
1000
9000
6000
ENDCHAR
STARTCHAR Ccaron
ENCODING 200
SWIDTH 722 0
DWIDTH 10 0
BBX 9 14 1 0
BITMAP
0500
0200
0000
0F00
1080
2080
4000
4000
8000
8000
8100
8200
C600
3800
ENDCHAR
STARTCHAR Eacute
ENCODING 201
SWIDTH 667 0
DWIDTH 9 0
BBX 10 14 1 0
BITMAP
0100
0200
0000
1FC0
1000
1000
2000
2000
7E00
4000
4000
8000
8000
FE00
ENDCHAR
STARTCHAR Eogonek
ENCODING 202
SWIDTH 667 0
DWIDTH 9 0
BBX 10 14 1 -3
BITMAP
1FC0
1000
1000
2000
2000
7E00
4000
4000
8000
8000
FE00
0600
0800
0E00
ENDCHAR
STARTCHAR Edieresis
ENCODING 203
SWIDTH 667 0
DWIDTH 9 0
BBX 10 13 1 0
BITMAP
06C0
0000
1FC0
1000
1000
2000
2000
7E00
4000
4000
8000
8000
FE00
ENDCHAR
STARTCHAR Ecaron
ENCODING 204
SWIDTH 667 0
DWIDTH 9 0
BBX 10 14 1 0
BITMAP
0500
0200
0000
1FC0
1000
1000
2000
2000
7E00
4000
4000
8000
8000
FE00
ENDCHAR
STARTCHAR Iacute
ENCODING 205
SWIDTH 278 0
DWIDTH 5 0
BBX 5 14 1 0
BITMAP
08
10
00
10
10
20
20
20
40
40
40
80
80
80
ENDCHAR
STARTCHAR Icircumflex
ENCODING 206
SWIDTH 278 0
DWIDTH 5 0
BBX 5 14 1 0
BITMAP
10
28
00
10
10
20
20
20
40
40
40
80
80
80
ENDCHAR
STARTCHAR Dcaron
ENCODING 207
SWIDTH 722 0
DWIDTH 10 0
BBX 9 14 1 0
BITMAP
0A00
0400
0000
1E00
1100
2100
2080
2080
4080
4100
4100
8200
8C00
F000
ENDCHAR
STARTCHAR Eth
ENCODING 208
SWIDTH 722 0
DWIDTH 10 0
BBX 11 11 0 0
BITMAP
0F80
0840
0840
1020
1020
FC20
2040
2040
4080
4300
7C00
ENDCHAR
STARTCHAR Nacute
ENCODING 209
SWIDTH 722 0
DWIDTH 11 0
BBX 11 14 1 0
BITMAP
0080
0100
0000
1820
1820
2840
2440
2440
4480
4480
4480
8500
8300
8300
ENDCHAR
STARTCHAR Ncaron
ENCODING 210
SWIDTH 722 0
DWIDTH 11 0
BBX 11 14 1 0
BITMAP
0280
0100
0000
1820
1820
2840
2440
2440
4480
4480
4480
8500
8300
8300
ENDCHAR
STARTCHAR Oacute
ENCODING 211
SWIDTH 778 0
DWIDTH 11 0
BBX 10 14 1 0
BITMAP
0100
0200
0000
0700
1880
20C0
4040
4040
8080
8080
8180
8200
C600
3800
ENDCHAR
STARTCHAR Ocircumflex
ENCODING 212
SWIDTH 778 0
DWIDTH 11 0
BBX 10 14 1 0
BITMAP
0200
0500
0000
0700
1880
20C0
4040
4040
8080
8080
8180
8200
C600
3800
ENDCHAR
STARTCHAR Ohungarumlaut
ENCODING 213
SWIDTH 778 0
DWIDTH 11 0
BBX 10 14 1 0
BITMAP
0280
0500
0000
0700
1880
20C0
4040
4040
8080
8080
8180
8200
C600
3800
ENDCHAR
STARTCHAR Odieresis
ENCODING 214
SWIDTH 778 0
DWIDTH 11 0
BBX 10 13 1 0
BITMAP
0D80
0000
0700
1880
20C0
4040
4040
8080
8080
8180
8200
C600
3800
ENDCHAR
STARTCHAR multiply
ENCODING 215
SWIDTH 584 0
DWIDTH 9 0
BBX 8 7 0 1
BITMAP
41
22
14
18
28
44
82
ENDCHAR
STARTCHAR Rcaron
ENCODING 216
SWIDTH 722 0
DWIDTH 10 0
BBX 9 14 1 0
BITMAP
0500
0200
0000
1F00
1080
2080
2080
2100
7E00
4100
4100
8100
8200
8200
ENDCHAR
STARTCHAR Uring
ENCODING 217
SWIDTH 722 0
DWIDTH 11 0
BBX 11 14 1 0
BITMAP
0180
0280
0300
1020
1020
2040
2040
2040
4080
4080
4080
8100
C300
7E00
ENDCHAR
STARTCHAR Uacute
ENCODING 218
SWIDTH 722 0
DWIDTH 11 0
BBX 11 14 1 0
BITMAP
0080
0100
0000
1020
1020
2040
2040
2040
4080
4080
4080
8100
C300
7E00
ENDCHAR
STARTCHAR Uhungarumlaut
ENCODING 219
SWIDTH 722 0
DWIDTH 11 0
BBX 11 14 1 0
BITMAP
0140
0280
0000
1020
1020
2040
2040
2040
4080
4080
4080
8100
C300
7E00
ENDCHAR
STARTCHAR Udieresis
ENCODING 220
SWIDTH 722 0
DWIDTH 11 0
BBX 11 13 1 0
BITMAP
06C0
0000
1020
1020
2040
2040
2040
4080
4080
4080
8100
C300
7E00
ENDCHAR
STARTCHAR Yacute
ENCODING 221
SWIDTH 667 0
DWIDTH 9 0
BBX 9 14 2 0
BITMAP
0400
0800
0000
8080
8100
8200
4200
4400
4800
3000
2000
2000
4000
4000
ENDCHAR
STARTCHAR Tcedilla
ENCODING 222
SWIDTH 611 0
DWIDTH 8 0
BBX 11 14 0 -3
BITMAP
3FE0
0200
0400
0400
0400
0800
0800
0800
1000
1000
1000
1000
9000
6000
ENDCHAR
STARTCHAR germandbls
ENCODING 223
SWIDTH 611 0
DWIDTH 8 0
BBX 8 11 1 0
BITMAP
0E
11
21
22
2C
48
44
44
84
88
B0
ENDCHAR
STARTCHAR racute
ENCODING 224
SWIDTH 333 0
DWIDTH 5 0
BBX 6 11 0 0
BITMAP
04
08
00
2C
30
40
40
40
80
80
80
ENDCHAR
STARTCHAR aacute
ENCODING 225
SWIDTH 556 0
DWIDTH 8 0
BBX 7 11 0 0
BITMAP
04
08
00
1C
22
02
3C
44
88
98
EC
ENDCHAR
STARTCHAR acircumflex
ENCODING 226
SWIDTH 556 0
DWIDTH 8 0
BBX 7 11 0 0
BITMAP
08
14
00
1C
22
02
3C
44
88
98
EC
ENDCHAR
STARTCHAR abreve
ENCODING 227
SWIDTH 556 0
DWIDTH 8 0
BBX 7 11 0 0
BITMAP
22
1C
00
1C
22
02
3C
44
88
98
EC
ENDCHAR
STARTCHAR adieresis
ENCODING 228
SWIDTH 556 0
DWIDTH 8 0
BBX 7 10 0 0
BITMAP
36
00
1C
22
02
3C
44
88
98
EC
ENDCHAR
STARTCHAR lacute
ENCODING 229
SWIDTH 222 0
DWIDTH 3 0
BBX 5 14 0 0
BITMAP
08
10
00
10
10
20
20
20
40
40
40
80
80
80
ENDCHAR
STARTCHAR cacute
ENCODING 230
SWIDTH 500 0
DWIDTH 7 0
BBX 7 11 0 0
BITMAP
02
04
00
1C
22
40
40
80
84
88
70
ENDCHAR
STARTCHAR ccedilla
ENCODING 231
SWIDTH 500 0
DWIDTH 7 0
BBX 8 11 -1 -3
BITMAP
0E
11
20
20
40
42
44
38
10
90
60
ENDCHAR
STARTCHAR ccaron
ENCODING 232
SWIDTH 500 0
DWIDTH 7 0
BBX 7 11 0 0
BITMAP
14
08
00
1C
22
40
40
80
84
88
70
ENDCHAR
STARTCHAR eacute
ENCODING 233
SWIDTH 556 0
DWIDTH 8 0
BBX 7 11 0 0
BITMAP
04
08
00
1C
22
42
7E
80
80
8C
70
ENDCHAR
STARTCHAR eogonek
ENCODING 234
SWIDTH 556 0
DWIDTH 8 0
BBX 7 11 0 -3
BITMAP
1C
22
42
7E
80
80
8C
70
60
80
E0
ENDCHAR
STARTCHAR edieresis
ENCODING 235
SWIDTH 556 0
DWIDTH 8 0
BBX 7 10 0 0
BITMAP
36
00
1C
22
42
7E
80
80
8C
70
ENDCHAR
STARTCHAR ecaron
ENCODING 236
SWIDTH 556 0
DWIDTH 8 0
BBX 7 11 0 0
BITMAP
14
08
00
1C
22
42
7E
80
80
8C
70
ENDCHAR
STARTCHAR iacute
ENCODING 237
SWIDTH 278 0
DWIDTH 3 0
BBX 4 11 0 0
BITMAP
10
20
00
20
20
40
40
40
80
80
80
ENDCHAR
STARTCHAR icircumflex
ENCODING 238
SWIDTH 278 0
DWIDTH 3 0
BBX 4 11 0 0
BITMAP
20
50
00
20
20
40
40
40
80
80
80
ENDCHAR
STARTCHAR dcaron
ENCODING 239
SWIDTH 556 0
DWIDTH 8 0
BBX 11 11 0 0
BITMAP
00A0
00A0
0140
1D00
2500
4200
4200
8200
8400
8C00
7400
ENDCHAR
STARTCHAR dmacron
ENCODING 240
SWIDTH 556 0
DWIDTH 8 0
BBX 10 11 0 0
BITMAP
0080
0FC0
0100
1D00
2500
4200
4200
8200
8400
8C00
7400
ENDCHAR
STARTCHAR nacute
ENCODING 241
SWIDTH 556 0
DWIDTH 8 0
BBX 7 11 0 0
BITMAP
02
04
00
2C
32
42
44
44
84
88
88
ENDCHAR
STARTCHAR ncaron
ENCODING 242
SWIDTH 556 0
DWIDTH 8 0
BBX 7 11 0 0
BITMAP
0A
04
00
2C
32
42
44
44
84
88
88
ENDCHAR
STARTCHAR oacute
ENCODING 243
SWIDTH 556 0
DWIDTH 8 0
BBX 7 11 0 0
BITMAP
04
08
00
1C
22
42
42
84
84
88
70
ENDCHAR
STARTCHAR ocircumflex
ENCODING 244
SWIDTH 556 0
DWIDTH 8 0
BBX 7 11 0 0
BITMAP
08
14
00
1C
22
42
42
84
84
88
70
ENDCHAR
STARTCHAR ohungarumlaut
ENCODING 245
SWIDTH 556 0
DWIDTH 8 0
BBX 7 11 0 0
BITMAP
0A
14
00
1C
22
42
42
84
84
88
70
ENDCHAR
STARTCHAR odieresis
ENCODING 246
SWIDTH 556 0
DWIDTH 8 0
BBX 7 10 0 0
BITMAP
36
00
1C
22
42
42
84
84
88
70
ENDCHAR
STARTCHAR divide
ENCODING 247
SWIDTH 584 0
DWIDTH 9 0
BBX 7 7 1 1
BITMAP
08
08
00
FE
00
20
20
ENDCHAR
STARTCHAR rcaron
ENCODING 248
SWIDTH 333 0
DWIDTH 5 0
BBX 6 11 0 0
BITMAP
14
08
00
2C
30
40
40
40
80
80
80
ENDCHAR
STARTCHAR uring
ENCODING 249
SWIDTH 556 0
DWIDTH 8 0
BBX 7 12 0 0
BITMAP
06
0A
0C
00
22
22
42
44
44
84
98
68
ENDCHAR
STARTCHAR uacute
ENCODING 250
SWIDTH 556 0
DWIDTH 8 0
BBX 7 11 0 0
BITMAP
04
08
00
22
22
42
44
44
84
98
68
ENDCHAR
STARTCHAR uhungarumlaut
ENCODING 251
SWIDTH 556 0
DWIDTH 8 0
BBX 7 11 0 0
BITMAP
0A
14
00
22
22
42
44
44
84
98
68
ENDCHAR
STARTCHAR udieresis
ENCODING 252
SWIDTH 556 0
DWIDTH 8 0
BBX 7 10 0 0
BITMAP
36
00
22
22
42
44
44
84
98
68
ENDCHAR
STARTCHAR yacute
ENCODING 253
SWIDTH 500 0
DWIDTH 7 0
BBX 7 14 0 -3
BITMAP
04
08
00
42
44
44
48
48
50
70
20
40
40
80
ENDCHAR
STARTCHAR tcedilla
ENCODING 254
SWIDTH 278 0
DWIDTH 4 0
BBX 6 13 -1 -3
BITMAP
08
08
3C
10
20
20
20
40
40
30
10
90
60
ENDCHAR
STARTCHAR dotaccent
ENCODING 255
SWIDTH 404 0
DWIDTH 6 0
BBX 2 1 2 9
BITMAP
C0
ENDCHAR
ENDFONT
